<?xml version="1.0" encoding="utf-8"?>
<!-- Generator: Adobe Illustrator 19.0.1, SVG Export Plug-In . SVG Version: 6.00 Build 0)  -->
<svg version="1.1" id="Слой_1" xmlns="http://www.w3.org/2000/svg" xmlns:xlink="http://www.w3.org/1999/xlink" x="0px" y="0px"
	 viewBox="-84 189.9 538.8 463" style="enable-background:new -84 189.9 538.8 463;" xml:space="preserve">
<style type="text/css">
	.st0{fill:#FFFFFF;}
	.st1{fill:#EAF6FE;stroke:#009EDB;stroke-width:3;stroke-miterlimit:10;}
	.st2{fill:none;stroke:#009EDB;stroke-width:3;stroke-miterlimit:10;}
</style>
<polygon class="st0" points="85.7,653.4 -83.4,653.4 -83.4,190.4 44.8,189.9 "/>
<path id="Прямоугольник_2" class="st1" d="M44.8,204.4l-13,100.5l14,127l7,17l2,17l5,14l-1,11l4,13v7l4,4l8,49l9,79
	l12-4h48l21-11l11,3l17-9l13,17h9l1-20l7-5l4-13l-4-9l7-10l-6-13l5-10l9,4l7-3l-2-7l-6-4l6-9l5-3l4-13l-6-7l2-14l4-2l4-6l6,1l15-6
	l-1-10l7-2l-8-5l-2-18l-11-8c-1.1-2.5-2.4-4.8-4-7c-1.5-1.8-3.2-3.5-5-5l-9-23l6-8l-20-21l-6,2l-8-1l-3-13l-10-11h-6l-15-12h-16
	l-6,5l-21-2l-4,5l-4-4l-6,3l-25-15l4-104l-40-27l-5,3L44.8,204.4z"/>
<polyline class="st2" points="85.7,653.4 83.8,642.9 95.8,638.9 143.8,638.9 164.8,627.9 175.8,630.9 192.8,621.9 205.8,638.9 
	198.2,653.4 "/>
<polyline class="st2" points="249.1,532.6 263.2,537.4 274.8,547.4 285.3,546.2 295.7,555.4 295.7,568.9 304.8,579.2 318.8,555.9 
	321.3,555.9 322.8,560.7 326.8,566.9 351.7,561.7 353.3,557.9 364.7,553.9 366.2,548.4 358.3,541.2 363.7,531.2 370.7,529.9 
	375.7,521.7 385.8,518.2 392.3,512.9 392.3,506.7 388.8,501.9 392.3,499.9 389.7,496.4 398.8,485.4 403.3,485.4 403.3,480.9 
	415.2,474.2 416.7,466.9 409.8,460.2 412.7,455.2 416.7,455.2 423.7,459.9 428.7,455.2 439.3,457.7 449.2,445.4 449.2,437.7 
	454.8,433.7 "/>
<polyline class="st2" points="247.1,420.4 273.7,421.4 286.3,417.7 288.8,387.4 296.7,382.9 301.3,372.7 356.2,327.2 391.2,248.4 
	402.8,254.1 406.7,253.9 422.3,266.4 423.8,268.6 439.8,271.6 447.7,262.9 450.8,250.4 454.3,239.4 "/>
<polyline class="st2" points="103.8,235.9 178.4,217.4 270.8,233.1 265.7,221.6 273.2,215.9 273.2,210.9 294.3,189.4 "/>
<line class="st2" x1="44.8" y1="204.4" x2="44.8" y2="189.9"/>
</svg>
